<?xml version="1.0" encoding="UTF-8" standalone="no"?>
<svg width="60px" height="60px" viewBox="0 0 60 60" version="1.1" xmlns="http://www.w3.org/2000/svg" xmlns:xlink="http://www.w3.org/1999/xlink" xmlns:sketch="http://www.bohemiancoding.com/sketch/ns">
    <!-- Generator: Sketch 3.2.2 (9983) - http://www.bohemiancoding.com/sketch -->
    <title>Headphones</title>
    <desc>Created with Sketch.</desc>
    <defs></defs>
    <g id="outlined" stroke="none" stroke-width="1" fill="none" fill-rule="evenodd" sketch:type="MSPage">
        <g id="Activities_sliced" sketch:type="MSLayerGroup" transform="translate(-600.000000, -720.000000)"></g>
        <g id="Activities" sketch:type="MSLayerGroup" transform="translate(-614.000000, -721.000000)" stroke="#535353" stroke-width="2" stroke-linejoin="round">
            <g id="Headphones" transform="translate(617.000000, 725.000000)" sketch:type="MSShapeGroup">
                <g id="Rectangle-1195-+-Rectangle-1196" transform="translate(45.000000, 35.500000) rotate(-345.000000) translate(-45.000000, -35.500000) translate(38.000000, 24.000000)" stroke-linecap="round">
                    <rect id="Rectangle-1195" x="0" y="0" width="11" height="23" rx="10"></rect>
                    <rect id="Rectangle-1196" x="9" y="6" width="5" height="12"></rect>
                </g>
                <g id="Rectangle-1195-+-Rectangle-1196" transform="translate(10.000000, 35.500000) scale(-1, 1) rotate(-345.000000) translate(-10.000000, -35.500000) translate(3.000000, 24.000000)" stroke-linecap="round">
                    <rect id="Rectangle-1195" x="0" y="0" width="11" height="23" rx="10"></rect>
                    <rect id="Rectangle-1196" x="9" y="6" width="5" height="12"></rect>
                </g>
                <path d="M32,50 L50,50" id="Line" stroke-linecap="square"></path>
                <rect id="Rectangle-1199" stroke-linecap="round" x="20" y="46" width="12" height="8" rx="15"></rect>
                <path d="M50,50 C52.7614237,50 55,47.7614237 55,45" id="Oval-978" stroke-linecap="round"></path>
                <path d="M50,45 C52.7614237,45 55,42.7614237 55,40" id="Oval-978" stroke-linecap="round" transform="translate(52.500000, 42.500000) scale(1, -1) translate(-52.500000, -42.500000) "></path>
                <path d="M52,24.5 C52,10.9690236 41.0309764,0 27.5,0 C13.9690236,0 3,10.9690236 3,24.5" id="Oval-978" stroke-linecap="round"></path>
            </g>
        </g>
    </g>
</svg>